<svg id="Layer_1" data-name="Layer 1" xmlns="http://www.w3.org/2000/svg" viewBox="0 0 55 55"><path d="M11.93,31.27c-1,0-2.9,2.3-2.9,5.91s1.9,5.91,2.9,5.91,2.89-2.3,2.89-5.91S12.92,31.27,11.93,31.27Z"/><path d="M54.92,13.92C54,6.82,46.44,1.12,41.37.15c-2.57-.49-4.61.23-5.57,2C34.59,4.35,31.86,4.4,27.14,4.3c-4.56-.1-10.24-.21-16,2.68C-.92,13.08.37,20.14,3.74,28.69a15.61,15.61,0,0,0-2.26,6.86L0,37.7l1.64,2.39C2.43,44.7,5,48.42,8.45,50l3.48,5,3.47-5c3.42-1.54,6-5.26,6.81-9.87l1.65-2.39L23.34,37C26,31.32,27.66,31.22,31.23,31A32.65,32.65,0,0,0,44.6,27.7C54,23.32,55.4,17.79,54.92,13.92Zm-43,32.57c-3.41,0-6.29-4.26-6.29-9.31s2.88-9.31,6.29-9.31,6.29,4.27,6.29,9.31S15.34,46.49,11.93,46.49ZM43.16,24.63a29.35,29.35,0,0,1-12.12,3c-4.13.23-6.6.85-9.2,5-1.18-4.26-4-7.52-7.41-8.61l-2.5-3.63L9.43,24a9.52,9.52,0,0,0-3.17,1.75C3.59,18.46,4,14.42,12.69,10c5-2.51,10-2.41,14.38-2.31,4.85.1,9.45.2,11.71-3.93.3-.55,1.57-.36,2-.28,3.9.74,10.16,5.63,10.81,10.85C52.17,19.32,47.33,22.68,43.16,24.63Z"/></svg>