<svg id="Layer_1" data-name="Layer 1" xmlns="http://www.w3.org/2000/svg" viewBox="0 0 55 55"><path d="M15.55,0,5.9,4.13A9.72,9.72,0,0,0,0,13.07v7.28H4l1.69,23.2A6.47,6.47,0,0,0,10,49.17L26.35,55V46.15H19.29a1.15,1.15,0,0,1,0-2.29h4.85a2.21,2.21,0,0,0,2.21-2.21V38.12H19.29A1.14,1.14,0,0,1,18.15,37h0a1.14,1.14,0,0,1,1.14-1.15h4.85a2.21,2.21,0,0,0,2.21-2.21V26.06H9.85a1.14,1.14,0,0,1-1.14-1.15h0a1.14,1.14,0,0,1,1.14-1.14H24.14a2.21,2.21,0,0,0,2.21-2.21V8.88A12.47,12.47,0,0,1,15.55,0Z"/><path d="M51,20.35h4V13.07a9.72,9.72,0,0,0-5.9-8.94L39.45,0a12.47,12.47,0,0,1-10.8,8.88V21.56a2.21,2.21,0,0,0,2.21,2.21H45.15a1.14,1.14,0,0,1,1.14,1.14h0a1.14,1.14,0,0,1-1.14,1.15H28.65v7.56a2.21,2.21,0,0,0,2.21,2.21h4.85A1.14,1.14,0,0,1,36.85,37h0a1.14,1.14,0,0,1-1.14,1.14H28.65v3.53a2.21,2.21,0,0,0,2.21,2.21h4.85a1.15,1.15,0,0,1,0,2.29H28.65V55l16.4-5.83a6.47,6.47,0,0,0,4.29-5.62Z"/></svg>