<svg id="Layer_1" data-name="Layer 1" xmlns="http://www.w3.org/2000/svg" viewBox="0 0 55 55"><path d="M55,.47,43.58,11.89a30.46,30.46,0,0,0-32.16,0L0,.47V19.41L2.71,20C1.69,21.44,0,37.31,0,37.31,5,47.5,27.5,54.53,27.5,54.53s22.55-7,27.5-17.22c0,0-1.69-15.87-2.71-17.29L55,19.41ZM9.41,44.28,6.28,36.4l5.51,2.49Zm4.25-.35.95-3.06L16,45.33Zm9,3.11-1.92-6.19c1.23.18,2.46.33,3.7.45ZM6.2,30.74s.92-6.14,4.35-7.66l14,14.23ZM32.33,47l-1.77-5.73c1.23-.12,2.46-.27,3.68-.44ZM39,45.4l1.4-4.53,1,3.12Zm6.6-1.12-2.38-5.39a49,49,0,0,1,5.51-2.49Zm-15.14-7,14-14.23c3.43,1.52,4.35,7.66,4.35,7.66Z"/></svg>