<svg id="Layer_1" data-name="Layer 1" xmlns="http://www.w3.org/2000/svg" viewBox="0 0 55 55"><path d="M27.5,3.25h0A27.5,27.5,0,0,0,0,30.75v21H20.24V45.32H9.48V30.8h36V45.32H34.76v6.43H55v-21A27.5,27.5,0,0,0,27.5,3.25ZM7.61,28.15A2.12,2.12,0,1,1,9.73,26,2.12,2.12,0,0,1,7.61,28.15Zm9.94,0A2.12,2.12,0,1,1,19.67,26,2.11,2.11,0,0,1,17.55,28.15Zm10,0A2.12,2.12,0,1,1,29.62,26,2.12,2.12,0,0,1,27.5,28.15Zm0-9.49a2.12,2.12,0,1,1,2.12-2.12A2.12,2.12,0,0,1,27.5,18.66Zm0-9.49a2.12,2.12,0,1,1,2.12-2.12A2.11,2.11,0,0,1,27.5,9.17Zm10,19A2.12,2.12,0,1,1,39.56,26,2.12,2.12,0,0,1,37.45,28.15Zm9.94,0A2.12,2.12,0,1,1,49.51,26,2.12,2.12,0,0,1,47.39,28.15Z"/></svg>