<svg id="Layer_1" data-name="Layer 1" xmlns="http://www.w3.org/2000/svg" viewBox="0 0 55 55"><path d="M51.27,13.36V29.68a4.58,4.58,0,0,1-4.57,4.57H30.05V38H25V34.25H8.3a4.58,4.58,0,0,1-4.57-4.57V13.36A12,12,0,0,0,.36,21.68V50a5,5,0,0,0,5,5H25V43.22h5.1V55H49.67a5,5,0,0,0,5-5V21.68A12,12,0,0,0,51.27,13.36ZM35,49.75H31.39v-3H32V42.2H23v4.59h.61v3H20V39.24H35Z"/><path d="M46.34,10.27a12.18,12.18,0,0,0-3.69-.58H41.16V8a8,8,0,0,0-8-8H21.87a8,8,0,0,0-8,8V9.69H12.35a12.18,12.18,0,0,0-3.69.58v19H46.34ZM36.22,9.69H18.78V8a3.1,3.1,0,0,1,3.09-3.1H33.13A3.1,3.1,0,0,1,36.22,8Z"/></svg>