<svg id="Layer_1" data-name="Layer 1" xmlns="http://www.w3.org/2000/svg" viewBox="0 0 55 55"><path d="M30.38,20.2A4.83,4.83,0,1,0,24,17.87,4.84,4.84,0,0,0,30.38,20.2Z"/><path d="M54.68,36.73a3.41,3.41,0,0,0-4.54-1.65l-7.4,3.47-2.92-6.24-3.28-7L39.4,24l2.41,5.15A3.41,3.41,0,1,0,48,26.23L44.13,18a3.44,3.44,0,0,0-1.93-1.76,3.38,3.38,0,0,0-2.61.12l-9,4.22h0l-5.94,2.78-3-6.44a3.41,3.41,0,0,0-6.18,2.9l4.46,9.52A3.42,3.42,0,0,0,24.43,31l5.94-2.78,1.83,3.9-7.4,3.47a3.4,3.4,0,0,0-1.64,4.53l4.37,9.33a3.4,3.4,0,0,0,3.09,2,3.54,3.54,0,0,0,1.44-.32,3.41,3.41,0,0,0,1.64-4.54l-2.92-6.24,4.31-2L38,44.53a3.44,3.44,0,0,0,1.93,1.76,3.45,3.45,0,0,0,2.61-.12L53,41.26A3.41,3.41,0,0,0,54.68,36.73Z"/><path d="M43.39,48a5.39,5.39,0,0,1-4.12.19,5.4,5.4,0,0,1-3.06-2.78l-2.08-4.45-.71.34,2.08,4.44a5.4,5.4,0,1,1-9.77,4.58L21.36,41A5.4,5.4,0,0,1,24,33.78l-.18-.54s-.52.06-.79.06a5.43,5.43,0,0,1-4.89-3.11l-4.46-9.52a5.38,5.38,0,0,1,8.12-6.59,6.8,6.8,0,0,1,3.69-4.43A6.71,6.71,0,0,1,28.33,9a6.87,6.87,0,0,1,6.18,3.93,6.8,6.8,0,0,1,.62,3.32l3.62-1.69A5.32,5.32,0,0,1,41,14.05a5.47,5.47,0,0,1,1.83.32,5.71,5.71,0,0,1,1.35.74A22.83,22.83,0,0,0,22.81.18h0A22.8,22.8,0,0,0,0,23V54.82H45.61V46.93Zm-29.2-7.19L7,34.14l7.18-6.64L13.6,33l6,1.17-6,1.17Z"/></svg>