<svg id="Layer_1" data-name="Layer 1" xmlns="http://www.w3.org/2000/svg" viewBox="0 0 55 55"><path d="M11.23,18.72a5,5,0,0,0,.87-1.2c.84.74,1.79,1.6,2.86,2.59a12.6,12.6,0,0,1,5-5.42c-1.39-1.49-2.55-2.77-3.5-3.82.14-.12.29-.21.42-.34a6.14,6.14,0,0,0-.1-8.68,6.13,6.13,0,0,0-8.68-.1,6.1,6.1,0,0,0-.65,7.78A5.21,5.21,0,0,0,3.55,11a5.43,5.43,0,0,0,7.68,7.68Z"/><path d="M38.54,10.87c-.95,1.05-2.11,2.33-3.5,3.82a12.6,12.6,0,0,1,5,5.42c1.07-1,2-1.85,2.86-2.59a5,5,0,0,0,.87,1.2A5.43,5.43,0,0,0,51.45,11a5.21,5.21,0,0,0-3.9-1.51,6.1,6.1,0,0,0-.65-7.78,6.13,6.13,0,0,0-8.68.1,6.14,6.14,0,0,0-.1,8.68C38.25,10.66,38.4,10.75,38.54,10.87Z"/><path d="M16.34,44.2c.88-1,2-2.25,3.33-3.71a3.56,3.56,0,0,1-.63-2V36.11a10.61,10.61,0,0,1-2.88-2.44c-1.49,1.42-2.81,2.64-3.94,3.68a4.93,4.93,0,0,0-.79-1,5.48,5.48,0,0,0-7.76.09,5.48,5.48,0,0,0-.09,7.75A5.36,5.36,0,0,0,7.63,45.7a6,6,0,1,0,9.28-1A6.17,6.17,0,0,0,16.34,44.2Z"/><path d="M43.57,36.31a4.93,4.93,0,0,0-.79,1c-1.13-1-2.45-2.26-3.94-3.68A10.72,10.72,0,0,1,36,36.11v2.35a3.57,3.57,0,0,1-.64,2c1.35,1.46,2.45,2.69,3.33,3.71a6.17,6.17,0,0,0-.57.47,6.09,6.09,0,1,0,9.28,1,5.36,5.36,0,0,0,4.05-1.55,5.55,5.55,0,0,0-7.85-7.84Z"/><path d="M28.7,15.06H26.3a10.5,10.5,0,0,0-10.49,10.5v1.33a8.52,8.52,0,0,0,5.33,7.9v3.67a1.48,1.48,0,0,0,1.48,1.48h9.76a1.48,1.48,0,0,0,1.48-1.48V34.79a8.52,8.52,0,0,0,5.33-7.9V25.56A10.5,10.5,0,0,0,28.7,15.06ZM24.5,31.92H22.39a3.45,3.45,0,0,1-3.45-3.45V27a2.47,2.47,0,0,1,2.47-2.46H23a3.32,3.32,0,0,1,3.32,3.32v2.23A1.81,1.81,0,0,1,24.5,31.92Zm11.56-3.45a3.45,3.45,0,0,1-3.45,3.45H30.5a1.81,1.81,0,0,1-1.81-1.81V27.88A3.32,3.32,0,0,1,32,24.56h1.58A2.47,2.47,0,0,1,36.06,27Z"/></svg>