<svg id="Layer_1" data-name="Layer 1" xmlns="http://www.w3.org/2000/svg" viewBox="0 0 55 55"><polygon points="16.53 55 16.53 38.55 0.09 38.55 0.09 24.46 16.53 24.46 16.53 8.02 30.63 8.02 30.63 24.46 47.07 24.46 47.07 38.55 30.63 38.55 30.63 55 16.53 55"/><polygon points="54.91 11.5 50.13 11.5 50.13 6.72 44.78 6.72 44.78 11.5 39.99 11.5 39.99 16.86 44.78 16.86 44.78 21.64 50.13 21.64 50.13 16.86 54.91 16.86 54.91 11.5"/><polygon points="42.17 2.82 39.35 2.82 39.35 0 36.19 0 36.19 2.82 33.37 2.82 33.37 5.98 36.19 5.98 36.19 8.8 39.35 8.8 39.35 5.98 42.17 5.98 42.17 2.82"/></svg>