<svg xmlns="http://www.w3.org/2000/svg" style="display: none;">
  <symbol id="rmd-accessory" width="55" height="55" viewBox="0 0 55 55">
    <path d="M11.93,31.27c-1,0-2.9,2.3-2.9,5.91s1.9,5.91,2.9,5.91,2.89-2.3,2.89-5.91S12.92,31.27,11.93,31.27Z"/><path d="M54.92,13.92C54,6.82,46.44,1.12,41.37.15c-2.57-.49-4.61.23-5.57,2C34.59,4.35,31.86,4.4,27.14,4.3c-4.56-.1-10.24-.21-16,2.68C-.92,13.08.37,20.14,3.74,28.69a15.61,15.61,0,0,0-2.26,6.86L0,37.7l1.64,2.39C2.43,44.7,5,48.42,8.45,50l3.48,5,3.47-5c3.42-1.54,6-5.26,6.81-9.87l1.65-2.39L23.34,37C26,31.32,27.66,31.22,31.23,31A32.65,32.65,0,0,0,44.6,27.7C54,23.32,55.4,17.79,54.92,13.92Zm-43,32.57c-3.41,0-6.29-4.26-6.29-9.31s2.88-9.31,6.29-9.31,6.29,4.27,6.29,9.31S15.34,46.49,11.93,46.49ZM43.16,24.63a29.35,29.35,0,0,1-12.12,3c-4.13.23-6.6.85-9.2,5-1.18-4.26-4-7.52-7.41-8.61l-2.5-3.63L9.43,24a9.52,9.52,0,0,0-3.17,1.75C3.59,18.46,4,14.42,12.69,10c5-2.51,10-2.41,14.38-2.31,4.85.1,9.45.2,11.71-3.93.3-.55,1.57-.36,2-.28,3.9.74,10.16,5.63,10.81,10.85C52.17,19.32,47.33,22.68,43.16,24.63Z"/>
  </symbol>
  <symbol id="rmd-armor" viewBox="0 0 55 55">
    <path d="M51.84,11.33A100.36,100.36,0,0,1,30.91,2.09L27.5,0,24.09,2.09A99.83,99.83,0,0,1,3.16,11.33L.67,12v2.59c0,.87.42,20.94,23.41,37.94L27.5,55l3.41-2.44c23-17,23.4-37.07,23.41-37.94V12ZM27.5,50.83V4A102.36,102.36,0,0,0,50.91,14.6S50.79,34.43,27.5,50.83Z"/>
  </symbol>
  <symbol id="rmd-breastplate" viewBox="0 0 55 55">
    <path d="M15.55,0,5.9,4.13A9.72,9.72,0,0,0,0,13.07v7.28H4l1.69,23.2A6.47,6.47,0,0,0,10,49.17L26.35,55V46.15H19.29a1.15,1.15,0,0,1,0-2.29h4.85a2.21,2.21,0,0,0,2.21-2.21V38.12H19.29A1.14,1.14,0,0,1,18.15,37h0a1.14,1.14,0,0,1,1.14-1.15h4.85a2.21,2.21,0,0,0,2.21-2.21V26.06H9.85a1.14,1.14,0,0,1-1.14-1.15h0a1.14,1.14,0,0,1,1.14-1.14H24.14a2.21,2.21,0,0,0,2.21-2.21V8.88A12.47,12.47,0,0,1,15.55,0Z"/><path d="M51,20.35h4V13.07a9.72,9.72,0,0,0-5.9-8.94L39.45,0a12.47,12.47,0,0,1-10.8,8.88V21.56a2.21,2.21,0,0,0,2.21,2.21H45.15a1.14,1.14,0,0,1,1.14,1.14h0a1.14,1.14,0,0,1-1.14,1.15H28.65v7.56a2.21,2.21,0,0,0,2.21,2.21h4.85A1.14,1.14,0,0,1,36.85,37h0a1.14,1.14,0,0,1-1.14,1.14H28.65v3.53a2.21,2.21,0,0,0,2.21,2.21h4.85a1.15,1.15,0,0,1,0,2.29H28.65V55l16.4-5.83a6.47,6.47,0,0,0,4.29-5.62Z"/>
  </symbol>
  <symbol id="rmd-chest" viewBox="0 0 55 55">
    <path d="M33.78,20.8a6.28,6.28,0,1,0-9.25,5.51L23.14,33.7h8.72l-1.39-7.39A6.28,6.28,0,0,0,33.78,20.8Z"/><path d="M16.26,20a11.27,11.27,0,0,1,22.48,0H55V16.41A16.41,16.41,0,0,0,38.59,0H16.41A16.41,16.41,0,0,0,0,16.41V20Z"/><path d="M36.28,27.84l-.35.43,2,10.43H17.11l2-10.43c-.13-.14-.24-.29-.36-.43H0V50.7A4.29,4.29,0,0,0,4.3,55H50.7A4.29,4.29,0,0,0,55,50.7V27.84Z"/>
  </symbol>
  <symbol id="rmd-enemy" viewBox="0 0 55 55">
    <path d="M55,.47,43.58,11.89a30.46,30.46,0,0,0-32.16,0L0,.47V19.41L2.71,20C1.69,21.44,0,37.31,0,37.31,5,47.5,27.5,54.53,27.5,54.53s22.55-7,27.5-17.22c0,0-1.69-15.87-2.71-17.29L55,19.41ZM9.41,44.28,6.28,36.4l5.51,2.49Zm4.25-.35.95-3.06L16,45.33Zm9,3.11-1.92-6.19c1.23.18,2.46.33,3.7.45ZM6.2,30.74s.92-6.14,4.35-7.66l14,14.23ZM32.33,47l-1.77-5.73c1.23-.12,2.46-.27,3.68-.44ZM39,45.4l1.4-4.53,1,3.12Zm6.6-1.12-2.38-5.39a49,49,0,0,1,5.51-2.49Zm-15.14-7,14-14.23c3.43,1.52,4.35,7.66,4.35,7.66Z"/>
  </symbol>
  <symbol id="rmd-forward" viewBox="0 0 55 55">
    <path d="M27.5,53.93l2.19-8.57L34.06,28.3l12.47,7L55,40.12l-5.6-8-19.71-28L27.5,1.07,25.31,4.18,5.6,32.16l-5.6,8,8.47-4.78,12.47-7,4.37,17.06ZM32.65,25,27.5,45.09V4.88L47.6,33.43Z"/><path d="M27.5,53.93l2.19-8.57L34.06,28.3l12.47,7L55,40.12l-5.6-8-19.71-28L27.5,1.07,25.31,4.18,5.6,32.16l-5.6,8,8.47-4.78,12.47-7,4.37,17.06ZM32.65,25,27.5,45.09V4.88L47.6,33.43Z"/>
  </symbol>
  <symbol id="rmd-helmet" viewBox="0 0 55 55">
    <path d="M27.5,3.25h0A27.5,27.5,0,0,0,0,30.75v21H20.24V45.32H9.48V30.8h36V45.32H34.76v6.43H55v-21A27.5,27.5,0,0,0,27.5,3.25ZM7.61,28.15A2.12,2.12,0,1,1,9.73,26,2.12,2.12,0,0,1,7.61,28.15Zm9.94,0A2.12,2.12,0,1,1,19.67,26,2.11,2.11,0,0,1,17.55,28.15Zm10,0A2.12,2.12,0,1,1,29.62,26,2.12,2.12,0,0,1,27.5,28.15Zm0-9.49a2.12,2.12,0,1,1,2.12-2.12A2.12,2.12,0,0,1,27.5,18.66Zm0-9.49a2.12,2.12,0,1,1,2.12-2.12A2.11,2.11,0,0,1,27.5,9.17Zm10,19A2.12,2.12,0,1,1,39.56,26,2.12,2.12,0,0,1,37.45,28.15Zm9.94,0A2.12,2.12,0,1,1,49.51,26,2.12,2.12,0,0,1,47.39,28.15Z"/>
  </symbol>
  <symbol id="rmd-impervious" viewBox="0 0 55 55">
    <polygon points="39.69 0 45.84 6.15 21.7 30.29 24.51 33.1 48.65 8.96 54.8 15.11 54.8 0 39.69 0"/><polygon points="22.03 12.38 28.18 18.54 28.18 3.42 13.07 3.42 19.22 9.58 8.78 20.03 8.78 0.42 0.2 0.42 0.2 55 8.78 55 8.78 48.84 14.93 55 20.55 55 11.58 46.03 18.89 38.71 16.09 35.91 8.78 43.22 8.78 25.79 37.99 55 43.6 55 11.51 22.91 22.03 12.38"/>
  </symbol>
  <symbol id="rmd-inventory" viewBox="0 0 55 55">
    <path d="M51.27,13.36V29.68a4.58,4.58,0,0,1-4.57,4.57H30.05V38H25V34.25H8.3a4.58,4.58,0,0,1-4.57-4.57V13.36A12,12,0,0,0,.36,21.68V50a5,5,0,0,0,5,5H25V43.22h5.1V55H49.67a5,5,0,0,0,5-5V21.68A12,12,0,0,0,51.27,13.36ZM35,49.75H31.39v-3H32V42.2H23v4.59h.61v3H20V39.24H35Z"/><path d="M46.34,10.27a12.18,12.18,0,0,0-3.69-.58H41.16V8a8,8,0,0,0-8-8H21.87a8,8,0,0,0-8,8V9.69H12.35a12.18,12.18,0,0,0-3.69.58v19H46.34ZM36.22,9.69H18.78V8a3.1,3.1,0,0,1,3.09-3.1H33.13A3.1,3.1,0,0,1,36.22,8Z"/>
  </symbol>
  <symbol id="rmd-invisible1" viewBox="0 0 55 55">
    <path d="M27.5,10C11.37,10,0,27.5,0,27.5S11.37,45,27.5,45,55,27.5,55,27.5,43.63,10,27.5,10Zm0,30.78A13.24,13.24,0,1,1,40.74,27.5,13.24,13.24,0,0,1,27.5,40.74Z"/>
  </symbol>
  <symbol id="rmd-invisible2" viewBox="0 0 55 55">
    <path d="M50.87,27.41l1.36-1.71-4.42-3.54L46,24.36c-.08.1-7.72,9.36-18.54,9.36S9,24.46,9,24.36L7.2,22.15,2.77,25.69l1.34,1.69L0,31.38l3.45,3.55L7.51,31A35.77,35.77,0,0,0,12.89,35l-2.55,5,4.41,2.25,2.55-5a27.37,27.37,0,0,0,7.65,2l-.12,5.48,5,.11.12-5.58a27.23,27.23,0,0,0,7.77-2l2.47,5,4.44-2.19-2.5-5A36.45,36.45,0,0,0,47.47,31l4.14,3.89L55,31.28Z"/>
  </symbol>
  <symbol id="rmd-left" viewBox="0 0 55 55">
    <path d="M53.93,27.5l-8.57-2.19L28.3,20.94l7-12.47L40.12,0l-8,5.6-28,19.71L1.07,27.5l3.11,2.19,28,19.71,8,5.6-4.78-8.47-7-12.47,17.06-4.37ZM25,22.35,45.09,27.5H4.88L33.43,7.4Z"/><path d="M53.93,27.5l-8.57-2.19L28.3,20.94l7-12.47L40.12,0l-8,5.6-28,19.71L1.07,27.5l3.11,2.19,28,19.71,8,5.6-4.78-8.47-7-12.47,17.06-4.37ZM25,22.35,45.09,27.5H4.88L33.43,7.4Z"/>
  </symbol>
  <symbol id="rmd-move" viewBox="0 0 55 55">
    <path d="M30.38,20.2A4.83,4.83,0,1,0,24,17.87,4.84,4.84,0,0,0,30.38,20.2Z"/><path d="M54.68,36.73a3.41,3.41,0,0,0-4.54-1.65l-7.4,3.47-2.92-6.24-3.28-7L39.4,24l2.41,5.15A3.41,3.41,0,1,0,48,26.23L44.13,18a3.44,3.44,0,0,0-1.93-1.76,3.38,3.38,0,0,0-2.61.12l-9,4.22h0l-5.94,2.78-3-6.44a3.41,3.41,0,0,0-6.18,2.9l4.46,9.52A3.42,3.42,0,0,0,24.43,31l5.94-2.78,1.83,3.9-7.4,3.47a3.4,3.4,0,0,0-1.64,4.53l4.37,9.33a3.4,3.4,0,0,0,3.09,2,3.54,3.54,0,0,0,1.44-.32,3.41,3.41,0,0,0,1.64-4.54l-2.92-6.24,4.31-2L38,44.53a3.44,3.44,0,0,0,1.93,1.76,3.45,3.45,0,0,0,2.61-.12L53,41.26A3.41,3.41,0,0,0,54.68,36.73Z"/><path d="M43.39,48a5.39,5.39,0,0,1-4.12.19,5.4,5.4,0,0,1-3.06-2.78l-2.08-4.45-.71.34,2.08,4.44a5.4,5.4,0,1,1-9.77,4.58L21.36,41A5.4,5.4,0,0,1,24,33.78l-.18-.54s-.52.06-.79.06a5.43,5.43,0,0,1-4.89-3.11l-4.46-9.52a5.38,5.38,0,0,1,8.12-6.59,6.8,6.8,0,0,1,3.69-4.43A6.71,6.71,0,0,1,28.33,9a6.87,6.87,0,0,1,6.18,3.93,6.8,6.8,0,0,1,.62,3.32l3.62-1.69A5.32,5.32,0,0,1,41,14.05a5.47,5.47,0,0,1,1.83.32,5.71,5.71,0,0,1,1.35.74A22.83,22.83,0,0,0,22.81.18h0A22.8,22.8,0,0,0,0,23V54.82H45.61V46.93Zm-29.2-7.19L7,34.14l7.18-6.64L13.6,33l6,1.17-6,1.17Z"/>
  </symbol>
  <symbol id="rmd-player" viewBox="0 0 55 55">
    <circle cx="27.5" cy="18.16" r="14.68"/><path d="M55,51.53A27.68,27.68,0,0,0,42.34,31.11a19.65,19.65,0,0,1-29.68,0A27.68,27.68,0,0,0,0,51.53Z"/>
  </symbol>
  <symbol id="rmd-poison" viewBox="0 0 55 55">
    <path d="M11.23,18.72a5,5,0,0,0,.87-1.2c.84.74,1.79,1.6,2.86,2.59a12.6,12.6,0,0,1,5-5.42c-1.39-1.49-2.55-2.77-3.5-3.82.14-.12.29-.21.42-.34a6.14,6.14,0,0,0-.1-8.68,6.13,6.13,0,0,0-8.68-.1,6.1,6.1,0,0,0-.65,7.78A5.21,5.21,0,0,0,3.55,11a5.43,5.43,0,0,0,7.68,7.68Z"/><path d="M38.54,10.87c-.95,1.05-2.11,2.33-3.5,3.82a12.6,12.6,0,0,1,5,5.42c1.07-1,2-1.85,2.86-2.59a5,5,0,0,0,.87,1.2A5.43,5.43,0,0,0,51.45,11a5.21,5.21,0,0,0-3.9-1.51,6.1,6.1,0,0,0-.65-7.78,6.13,6.13,0,0,0-8.68.1,6.14,6.14,0,0,0-.1,8.68C38.25,10.66,38.4,10.75,38.54,10.87Z"/><path d="M16.34,44.2c.88-1,2-2.25,3.33-3.71a3.56,3.56,0,0,1-.63-2V36.11a10.61,10.61,0,0,1-2.88-2.44c-1.49,1.42-2.81,2.64-3.94,3.68a4.93,4.93,0,0,0-.79-1,5.48,5.48,0,0,0-7.76.09,5.48,5.48,0,0,0-.09,7.75A5.36,5.36,0,0,0,7.63,45.7a6,6,0,1,0,9.28-1A6.17,6.17,0,0,0,16.34,44.2Z"/><path d="M43.57,36.31a4.93,4.93,0,0,0-.79,1c-1.13-1-2.45-2.26-3.94-3.68A10.72,10.72,0,0,1,36,36.11v2.35a3.57,3.57,0,0,1-.64,2c1.35,1.46,2.45,2.69,3.33,3.71a6.17,6.17,0,0,0-.57.47,6.09,6.09,0,1,0,9.28,1,5.36,5.36,0,0,0,4.05-1.55,5.55,5.55,0,0,0-7.85-7.84Z"/><path d="M28.7,15.06H26.3a10.5,10.5,0,0,0-10.49,10.5v1.33a8.52,8.52,0,0,0,5.33,7.9v3.67a1.48,1.48,0,0,0,1.48,1.48h9.76a1.48,1.48,0,0,0,1.48-1.48V34.79a8.52,8.52,0,0,0,5.33-7.9V25.56A10.5,10.5,0,0,0,28.7,15.06ZM24.5,31.92H22.39a3.45,3.45,0,0,1-3.45-3.45V27a2.47,2.47,0,0,1,2.47-2.46H23a3.32,3.32,0,0,1,3.32,3.32v2.23A1.81,1.81,0,0,1,24.5,31.92Zm11.56-3.45a3.45,3.45,0,0,1-3.45,3.45H30.5a1.81,1.81,0,0,1-1.81-1.81V27.88A3.32,3.32,0,0,1,32,24.56h1.58A2.47,2.47,0,0,1,36.06,27Z"/>
  </symbol>
  <symbol id="rmd-potion" viewBox="0 0 55 55">
    <path d="M34.64,12.73V7.22A3.61,3.61,0,0,0,34.41,0H20.59a3.61,3.61,0,0,0-.23,7.22v5.51a21.75,21.75,0,1,0,14.28,0Zm-8.28,8.16a2.72,2.72,0,1,1-2.72-2.72A2.72,2.72,0,0,1,26.36,20.89Zm-7.79,5.29A3.54,3.54,0,1,1,15,29.72,3.54,3.54,0,0,1,18.57,26.18ZM27.5,51A17.74,17.74,0,0,1,9.76,33.25c10,8,35.48-9.8,35.48,0A17.74,17.74,0,0,1,27.5,51Z"/>
  </symbol>
  <symbol id="rmd-regenerate" viewBox="0 0 55 55">
    <polygon points="16.53 55 16.53 38.55 0.09 38.55 0.09 24.46 16.53 24.46 16.53 8.02 30.63 8.02 30.63 24.46 47.07 24.46 47.07 38.55 30.63 38.55 30.63 55 16.53 55"/><polygon points="54.91 11.5 50.13 11.5 50.13 6.72 44.78 6.72 44.78 11.5 39.99 11.5 39.99 16.86 44.78 16.86 44.78 21.64 50.13 21.64 50.13 16.86 54.91 16.86 54.91 11.5"/><polygon points="42.17 2.82 39.35 2.82 39.35 0 36.19 0 36.19 2.82 33.37 2.82 33.37 5.98 36.19 5.98 36.19 8.8 39.35 8.8 39.35 5.98 42.17 5.98 42.17 2.82"/>
  </symbol>
  <symbol id="rmd-right" viewBox="0 0 55 55">
    <path d="M9.64,29.69,26.7,34.06l-7,12.47L14.88,55l8-5.6,28-19.71,3.11-2.19-3.11-2.19L22.84,5.6l-8-5.6,4.78,8.47,7,12.47L9.64,25.31,1.07,27.5ZM21.57,7.4,50.12,27.5H9.91L30,22.35Z"/><path d="M9.64,29.69,26.7,34.06l-7,12.47L14.88,55l8-5.6,28-19.71,3.11-2.19-3.11-2.19L22.84,5.6l-8-5.6,4.78,8.47,7,12.47L9.64,25.31,1.07,27.5ZM21.57,7.4,50.12,27.5H9.91L30,22.35Z"/>
  </symbol>
  <symbol id="rmd-weapon" viewBox="0 0 55 55">
    <path d="M34.93,43.63h-2l0-.57L34.82,11.5l0-.62-.35-.51L29.32,2.69,27.5,0,25.68,2.69l-5.19,7.68-.35.51,0,.62,1.89,31.56,0,.57h-2v3.69h5.18V55h4.5V47.32h5.18ZM27.5,3.25,33,11.39,31.11,43H27.5Z"/>
  </symbol>
</svg>